<svg width="14" height="19" viewBox="0 0 14 19" fill="none" xmlns="http://www.w3.org/2000/svg">
<path d="M8.11194 4.51199C8.11194 5.08799 8.00794 5.59999 7.79994 6.04799C7.59194 6.47999 7.31194 6.85599 6.95994 7.17599C6.62394 7.47999 6.23194 7.71199 5.78394 7.87199C5.35194 8.03199 4.90394 8.11199 4.43994 8.11199C3.97594 8.11199 3.51994 8.03199 3.07194 7.87199C2.63994 7.71199 2.24794 7.47999 1.89594 7.17599C1.55994 6.85599 1.28794 6.47999 1.07994 6.04799C0.871944 5.59999 0.767944 5.08799 0.767944 4.51199C0.767944 3.93599 0.871944 3.43199 1.07994 2.99999C1.28794 2.55199 1.55994 2.17599 1.89594 1.87199C2.24794 1.55199 2.63994 1.31199 3.07194 1.15199C3.51994 0.991987 3.97594 0.911987 4.43994 0.911987C4.90394 0.911987 5.35194 0.991987 5.78394 1.15199C6.23194 1.31199 6.62394 1.55199 6.95994 1.87199C7.31194 2.17599 7.59194 2.55199 7.79994 2.99999C8.00794 3.43199 8.11194 3.93599 8.11194 4.51199ZM4.43994 6.09599C4.83994 6.09599 5.19194 5.95999 5.49594 5.68799C5.79994 5.41599 5.95194 5.02399 5.95194 4.51199C5.95194 3.99999 5.79994 3.60799 5.49594 3.33599C5.19194 3.06399 4.83994 2.92799 4.43994 2.92799C4.03994 2.92799 3.68794 3.06399 3.38394 3.33599C3.07994 3.60799 2.92794 3.99999 2.92794 4.51199C2.92794 5.02399 3.07994 5.41599 3.38394 5.68799C3.68794 5.95999 4.03994 6.09599 4.43994 6.09599ZM13.9199 14.688C13.9199 15.264 13.8159 15.776 13.6079 16.224C13.3999 16.656 13.1199 17.032 12.7679 17.352C12.4319 17.656 12.0399 17.888 11.5919 18.048C11.1599 18.208 10.7119 18.288 10.2479 18.288C9.78395 18.288 9.32795 18.208 8.87994 18.048C8.44795 17.888 8.05594 17.656 7.70394 17.352C7.36794 17.032 7.09594 16.656 6.88794 16.224C6.67994 15.776 6.57594 15.264 6.57594 14.688C6.57594 14.112 6.67994 13.608 6.88794 13.176C7.09594 12.728 7.36794 12.352 7.70394 12.048C8.05594 11.728 8.44795 11.488 8.87994 11.328C9.32795 11.168 9.78395 11.088 10.2479 11.088C10.7119 11.088 11.1599 11.168 11.5919 11.328C12.0399 11.488 12.4319 11.728 12.7679 12.048C13.1199 12.352 13.3999 12.728 13.6079 13.176C13.8159 13.608 13.9199 14.112 13.9199 14.688ZM10.2479 16.272C10.6479 16.272 10.9999 16.136 11.3039 15.864C11.6079 15.592 11.7599 15.2 11.7599 14.688C11.7599 14.176 11.6079 13.784 11.3039 13.512C10.9999 13.24 10.6479 13.104 10.2479 13.104C9.84794 13.104 9.49594 13.24 9.19195 13.512C8.88795 13.784 8.73594 14.176 8.73594 14.688C8.73594 15.2 8.88795 15.592 9.19195 15.864C9.49594 16.136 9.84794 16.272 10.2479 16.272ZM12.5039 5.75999L13.4879 7.63199L2.15994 13.44L1.17594 11.568L12.5039 5.75999Z" fill="#00494D"/>
</svg>
